<svg id="Layer_1" xmlns="http://www.w3.org/2000/svg" viewBox="0 0 44 48.1"><style>.st0{fill:#009e00}</style><path class="st0" d="M29.6 24.6h-5.9V13.4c0-.9-.8-1.7-1.7-1.7-.9 0-1.7.8-1.7 1.7v12.9c0 .9.8 1.7 1.7 1.7h7.6c.9 0 1.7-.8 1.7-1.7s-.8-1.7-1.7-1.7z"/><path class="st0" d="M22 4.3C9.9 4.3-.1 14.1-.1 26.1v.3c.1 12 10 21.8 22.1 21.8 12.2 0 22.1-9.9 22.1-22S34.2 4.3 22 4.3zm18.8 22c0 10.3-8.4 18.6-18.8 18.6S3.2 36.5 3.2 26.3 11.6 7.6 22 7.6 40.8 16 40.8 26.3zM28.8-.2H15.2c-.9 0-1.7.8-1.7 1.7s.8 1.7 1.7 1.7h13.6c.9 0 1.7-.8 1.7-1.7s-.8-1.7-1.7-1.7zM43 10.1L38.9 6c-.7-.7-1.7-.7-2.4 0-.3.3-.5.7-.5 1.2 0 .4.2.9.5 1.2l4.1 4.1c.3.3.7.5 1.2.5.4 0 .9-.2 1.2-.5.3-.3.5-.7.5-1.2s-.2-.9-.5-1.2z"/></svg>