<svg xmlns="http://www.w3.org/2000/svg" width="39.996" height="40" viewBox="-1.499 -1.5 39.996 40"><title>Line 41</title><path fill="#05A006" d="M36.586 2.163L34.838.415A6.475 6.475 0 0 0 30.229-1.5 6.416 6.416 0 0 0 25.661.392L2.445 23.607l-3.736 11.209c-.466 1.398-.042 2.293.253 2.702.456.633 1.177.981 2.03.981.378 0 .779-.07 1.193-.208l11.209-3.737L36.609 11.34a6.41 6.41 0 0 0 1.888-4.587 6.478 6.478 0 0 0-1.911-4.59zM.991 37L.99 35.5h.001V37zM34.488 9.219L11.773 31.933 1.714 35.286l3.353-10.058L27.781 2.513c1.314-1.315 3.607-1.306 4.936.023l1.748 1.749a3.498 3.498 0 0 1 1.033 2.478 3.436 3.436 0 0 1-1.01 2.456z"/></svg>